HIERARCHY
ROOT hip
{
	OFFSET 0.000000 0.000000 0.000000 
	CHANNELS 6 Xposition Yposition Zposition Xrotation Zrotation Yrotation
	JOINT abdomen
	{
		OFFSET 0.000000 3.402643 0.000000 
		CHANNELS 3 Xrotation Zrotation Yrotation
		JOINT chest
		{
			OFFSET 0.000000 8.438565 -0.680529 
			CHANNELS 3 Xrotation Zrotation Yrotation
			JOINT neck
			{
				OFFSET 0.000000 10.207942 -0.272212 
				CHANNELS 3 Xrotation Zrotation Yrotation
				JOINT head
				{
					OFFSET 0.000000 3.130431 0.000000 
					CHANNELS 3 Xrotation Zrotation Yrotation
					End Site
					{
						OFFSET 0.000000 3.130435 0.000000 
					}
				}
			}
			JOINT lCollar
			{
				OFFSET 3.470700 6.669187 -0.816635 
				CHANNELS 3 Yrotation Zrotation Xrotation
				JOINT lShldr
				{
					OFFSET 3.198488 0.000000 0.000000 
					CHANNELS 3 Zrotation Yrotation Xrotation
					JOINT lForeArm
					{
						OFFSET 10.139888 0.000000 0.000000 
						CHANNELS 3 Yrotation Zrotation Xrotation
						JOINT lHand
						{
							OFFSET 8.370511 0.000000 0.000000 
							CHANNELS 3 Zrotation Yrotation Xrotation
							End Site
							{
								OFFSET 4.083176 0.000000 0.000000 
							}
						}
					}
				}
			}
			JOINT rCollar
			{
				OFFSET -3.470700 6.669187 -0.816635 
				CHANNELS 3 Yrotation Zrotation Xrotation
				JOINT rShldr
				{
					OFFSET -3.198488 0.000000 0.000000 
					CHANNELS 3 Zrotation Yrotation Xrotation
					JOINT rForeArm
					{
						OFFSET -10.139888 0.000000 0.000000 
						CHANNELS 3 Yrotation Zrotation Xrotation
						JOINT rHand
						{
							OFFSET -8.370511 0.000000 0.000000 
							CHANNELS 3 Zrotation Yrotation Xrotation
							End Site
							{
								OFFSET -4.083176 0.000000 0.000000 
							}
						}
					}
				}
			}
		}
	}
	JOINT lThigh
	{
		OFFSET 5.308129 -1.633274 1.361059 
		CHANNELS 3 Xrotation Zrotation Yrotation
		JOINT lShin
		{
			OFFSET -2.041588 -20.007561 0.000000 
			CHANNELS 3 Xrotation Zrotation Yrotation
			JOINT lFoot
			{
				OFFSET 0.000000 -19.190928 -1.224953 
				CHANNELS 3 Xrotation Yrotation Zrotation
				End Site
				{
					OFFSET 0.000000 -2.449906 4.627600 
				}
			}
		}
	}
	JOINT rThigh
	{
		OFFSET -5.308129 -1.633274 1.361059 
		CHANNELS 3 Xrotation Zrotation Yrotation
		JOINT rShin
		{
			OFFSET 2.041588 -20.007561 0.000000 
			CHANNELS 3 Xrotation Zrotation Yrotation
			JOINT rFoot
			{
				OFFSET 0.000000 -19.190928 -1.224953 
				CHANNELS 3 Xrotation Yrotation Zrotation
				End Site
				{
					OFFSET 0.000000 -2.449906 4.627600 
				}
			}
		}
	}
}
MOTION
Frames: 6
Frame Time: 0.011111
-6.366378 51.971573 121.692429 178.877823 -178.600937 -2.610039 46.227676 2.709026 -2.921412 -30.232218 8.567657 -1.164391 -13.834938 -1.200353 -0.572056 25.685648 -5.832143 -1.482373 2.656661 -4.973740 1.830115 -71.065895 -11.154812 16.410706 -57.856632 9.057596 11.450520 8.524705 12.647240 -38.597057 -4.438679 -1.473473 2.444106 71.701210 13.674303 -35.432503 85.117973 -2.778949 26.706997 -8.534408 -12.637552 80.765488 -13.247422 0.575816 -0.854554 30.252602 -5.323402 -4.893893 -14.896695 0.123271 -2.955803 -6.464021 -9.041409 -1.641397 65.044571 2.148602 8.525249 1.397033 -13.876167 3.497015 
-6.386307 51.956249 121.331558 178.994293 -178.335800 -1.885426 46.588753 2.686379 -3.519109 -30.224369 8.685951 -1.298838 -14.566270 -1.018938 -0.566407 26.111727 -5.948310 -1.521493 2.656661 -4.973740 1.830115 -70.635796 -11.710713 16.780186 -57.601868 9.027913 11.336901 8.524705 12.647240 -38.333389 -4.438679 -1.473473 2.444106 71.426888 13.931392 -35.669930 85.318985 -2.529871 27.004086 -8.534408 -12.637552 79.447128 -12.553429 0.106920 -1.239713 30.044752 -5.318148 -4.883975 -14.767138 -0.393350 -3.110164 -7.779130 -9.301247 -2.395087 66.859230 1.924129 8.649599 0.261527 -13.711329 3.275993 
-6.513542 51.968204 120.760986 179.502228 -178.170776 -2.591934 46.700665 2.378131 -3.515483 -29.996664 8.657881 -1.220686 -14.428443 -1.014635 -0.440189 26.152178 -6.336159 -1.312345 2.656661 -4.973740 1.830115 -70.683220 -11.631597 16.682039 -57.549015 9.022352 11.314487 8.524705 12.647240 -38.040417 -4.438679 -1.473473 2.444106 70.655785 13.947066 -35.400913 85.488647 -2.307192 27.288454 -8.534408 -12.637552 78.216660 -11.042354 -0.312601 -1.275267 29.823778 -5.342878 -4.831255 -15.208430 -0.298019 -3.065131 -8.686039 -9.612849 -1.968818 68.321808 1.738826 8.746662 -0.571898 -13.018218 3.108854 
-6.571487 51.949810 120.353218 179.521637 -178.007187 -2.405659 46.672531 2.375180 -3.985295 -30.407810 8.985040 -1.412097 -13.833209 -1.158340 -0.401374 26.056067 -6.663916 -1.233157 2.656661 -4.973740 1.830115 -70.836983 -11.472136 16.403595 -57.357784 8.999134 11.233867 8.524705 12.647240 -38.294323 -4.438679 -1.473473 2.444106 69.712776 13.676540 -35.087044 85.655190 -2.073430 27.621500 -8.534408 -12.637552 77.777199 -10.375284 -0.615459 -1.346056 29.675037 -5.337861 -4.836347 -15.605382 -0.668927 -3.151236 -10.160426 -9.818456 -2.257729 69.841270 1.552887 8.871586 -1.728885 -12.901890 2.885903 
-6.646604 51.942142 119.901917 179.658295 -177.895752 -2.409727 46.588661 2.387774 -4.196678 -30.040073 8.885962 -1.418997 -13.638356 -1.235619 -0.398681 25.794046 -6.726769 -1.251702 2.656661 -4.973740 1.830115 -70.643135 -12.052435 16.243048 -57.018787 8.958479 11.085729 8.524705 12.647240 -38.684948 -4.438679 -1.473473 2.444106 69.256104 14.068193 -34.983616 85.801201 -1.850764 27.952753 -8.534408 -12.637552 77.767433 -9.513732 -0.868695 -1.417591 29.531797 -5.370025 -4.802819 -16.639193 -0.847178 -3.180062 -11.420932 -9.956450 -2.400067 71.107727 1.387172 8.948062 -3.169601 -13.015767 2.625123 
-6.662852 51.912407 119.572029 179.697174 -177.735504 -1.628686 46.734406 2.592917 -4.866709 -30.280735 9.077807 -1.652412 -13.344246 -1.099416 -0.390193 25.651337 -7.094469 -1.219878 2.656661 -4.973740 1.830115 -70.432877 -12.330250 16.345987 -56.976665 8.954771 11.073532 8.524705 12.647240 -38.870495 -4.438679 -1.473473 2.444106 68.842155 14.320913 -35.014263 85.925476 -1.651544 28.310650 -8.534408 -12.637552 78.245956 -8.993857 -1.123015 -1.621005 29.462147 -5.370795 -4.796077 -16.802036 -1.141675 -3.259090 -12.790045 -10.104965 -3.075673 72.306351 1.260055 9.013785 -4.680849 -13.271511 2.309424 
